<svg width="25" height="25" viewBox="0 0 25 25" fill="none" xmlns="http://www.w3.org/2000/svg">
<path d="M12.5777 1.6656C6.51266 1.6656 1.58066 6.5986 1.58066 12.6616C1.58066 18.7266 6.51266 23.6596 12.5777 23.6596C18.6427 23.6596 23.5757 18.7266 23.5757 12.6616C23.5757 6.5986 18.6427 1.6656 12.5777 1.6656ZM12.5777 24.5166C6.03966 24.5166 0.722656 19.1986 0.722656 12.6616C0.722656 6.1256 6.03966 0.808601 12.5777 0.808601C19.1157 0.808601 24.4337 6.1256 24.4337 12.6616C24.4337 19.1986 19.1157 24.5166 12.5777 24.5166Z" fill="#1C80C6"/>
<path d="M7.17578 15.9047V9.29571C7.17578 9.06571 7.45578 8.95271 7.61678 9.11771L12.3548 13.9867C12.3808 14.0237 12.4508 14.0637 12.5118 14.0777C12.6148 14.1007 12.7208 14.0677 12.7928 13.9927L17.5358 9.11771C17.6968 8.95271 17.9768 9.06571 17.9768 9.29571V15.9047C17.9768 16.5657 17.4418 17.1007 16.7798 17.1007H8.37178C7.71178 17.1007 7.17578 16.5657 7.17578 15.9047ZM17.1408 8.65971L12.7588 13.1647C12.6588 13.2677 12.4948 13.2677 12.3948 13.1647L8.01278 8.65971C7.85378 8.49671 7.96878 8.22371 8.19578 8.22371H16.9558C17.1838 8.22371 17.2988 8.49671 17.1408 8.65971Z" fill="#1C80C6"/>
</svg>
