<svg width="19" height="19" viewBox="0 0 19 19" fill="none" xmlns="http://www.w3.org/2000/svg">
<path d="M9.38578 0.674999C4.61078 0.674999 0.725781 4.559 0.725781 9.334C0.725781 14.109 4.61078 17.993 9.38578 17.993C14.1608 17.993 18.0448 14.109 18.0448 9.334C18.0448 4.559 14.1608 0.674999 9.38578 0.674999ZM9.38578 18.668C4.23778 18.668 0.0507812 14.48 0.0507812 9.334C0.0507812 4.187 4.23778 0 9.38578 0C14.5338 0 18.7208 4.187 18.7208 9.334C18.7208 14.48 14.5338 18.668 9.38578 18.668Z" fill="#FFCB35"/>
<path d="M5.13281 11.8871V6.68313C5.13281 6.50213 5.35381 6.41313 5.47981 6.54313L9.21081 10.3771C9.23081 10.4061 9.28581 10.4371 9.33381 10.4491C9.41481 10.4671 9.49881 10.4401 9.55581 10.3821L13.2898 6.54313C13.4168 6.41313 13.6378 6.50213 13.6378 6.68313V11.8871C13.6378 12.4071 13.2168 12.8291 12.6948 12.8291H6.07481C5.55481 12.8291 5.13281 12.4071 5.13281 11.8871ZM12.9788 6.18213L9.52881 9.72913C9.45081 9.81013 9.32081 9.81013 9.24181 9.72913L5.79181 6.18213C5.66681 6.05413 5.75781 5.83913 5.93581 5.83913H12.8338C13.0138 5.83913 13.1038 6.05413 12.9788 6.18213Z" fill="#FFCB35"/>
</svg>
