<svg width="20" height="20" viewBox="0 0 20 20" fill="none" xmlns="http://www.w3.org/2000/svg">
<g clip-path="url(#clip0_158_9)">
<path d="M6.24219 5.1107L8.57519 7.4147L9.36619 6.5967C9.54519 6.4117 9.54419 6.1167 9.36219 5.9327L7.76019 4.3117C7.57819 4.1277 7.28319 4.1227 7.09519 4.3007L6.24219 5.1107Z" fill="#FFCB35"/>
<path d="M12.0391 10.9476L14.3721 13.2526L15.1631 12.4336C15.3421 12.2486 15.3411 11.9536 15.1591 11.7696L13.5571 10.1486C13.3751 9.96362 13.0791 9.95962 12.8921 10.1366L12.0391 10.9476Z" fill="#FFCB35"/>
<path d="M5.80067 5.56092L6.98067 6.72992C7.63267 7.37592 8.11867 8.06092 8.06667 8.25792C7.81567 8.22992 7.97167 8.61692 8.41367 9.12292C8.85667 9.62792 10.2157 10.9359 10.2157 10.9359C10.2157 10.9359 10.7117 11.5989 11.6177 11.3359L12.7767 12.5059C13.4177 13.1509 13.4597 14.0729 12.8717 14.5639C14.0707 16.8919 11.8077 15.4529 7.81767 11.3499C3.82667 7.24692 5.80067 5.56092 5.80067 5.56092Z" fill="#FFCB35"/>
</g>
<path d="M9.74634 0.694012C4.83834 0.694012 0.846344 4.68601 0.846344 9.59301C0.846344 14.501 4.83834 18.493 9.74634 18.493C14.6543 18.493 18.6463 14.501 18.6463 9.59301C18.6463 4.68601 14.6543 0.694012 9.74634 0.694012ZM9.74634 19.187C4.45534 19.187 0.152344 14.882 0.152344 9.59301C0.152344 4.30301 4.45534 1.14441e-05 9.74634 1.14441e-05C15.0373 1.14441e-05 19.3413 4.30301 19.3413 9.59301C19.3413 14.882 15.0373 19.187 9.74634 19.187Z" fill="#FFCB35"/>
<defs>
<clipPath id="clip0_158_9">
<rect width="14.1" height="14.1" fill="white" transform="translate(2.69922 1.03662)"/>
</clipPath>
</defs>
</svg>
